<svg version="1.1" id="Layer_1" xmlns="http://www.w3.org/2000/svg" xmlns:xlink="http://www.w3.org/1999/xlink" x="0px" y="0px"
	 width="100%" viewBox="0 0 100 100" enable-background="new 0 0 100 100" xml:space="preserve">
<path fill="#FFFFFF" opacity="1.000000" stroke="none" 
	d="
M52.000000,101.000000 
	C34.666668,101.000000 17.833340,101.000000 1.000007,101.000000 
	C1.000005,67.666679 1.000005,34.333351 1.000002,1.000020 
	C34.333317,1.000013 67.666634,1.000013 100.999969,1.000007 
	C100.999977,34.333313 100.999977,67.666626 100.999985,100.999969 
	C84.833336,101.000000 68.666664,101.000000 52.000000,101.000000 
M78.794304,71.881203 
	C79.174820,65.071075 76.467216,60.292866 70.924438,59.349972 
	C67.860847,58.828819 65.879387,57.879967 63.408840,55.674603 
	C52.371418,45.821892 34.489231,52.290623 31.387470,66.752670 
	C30.744925,69.748566 31.363787,71.115250 34.683205,71.046257 
	C41.162937,70.911583 47.650269,71.105804 54.127518,70.920830 
	C55.365643,70.885468 56.571812,69.730980 57.709229,69.136459 
	C58.728691,75.425903 61.733757,79.097061 66.879982,79.918663 
	C71.836456,80.709969 75.705864,78.287033 78.794304,71.881203 
M52.184010,28.062658 
	C45.928005,28.242241 41.904781,31.302162 41.100830,36.492130 
	C40.390316,41.078934 42.883392,45.406273 47.292351,47.238987 
	C51.794304,49.110352 56.731541,47.522957 59.445229,43.331657 
	C63.227058,37.490608 60.552761,31.210732 52.184010,28.062658 
z"/>
<path fill="#040404" opacity="1.000000" stroke="none" 
	d="
M78.658997,72.254410 
	C75.705864,78.287033 71.836456,80.709969 66.879982,79.918663 
	C61.733757,79.097061 58.728691,75.425903 57.709229,69.136459 
	C56.571812,69.730980 55.365643,70.885468 54.127518,70.920830 
	C47.650269,71.105804 41.162937,70.911583 34.683205,71.046257 
	C31.363787,71.115250 30.744925,69.748566 31.387470,66.752670 
	C34.489231,52.290623 52.371418,45.821892 63.408840,55.674603 
	C65.879387,57.879967 67.860847,58.828819 70.924438,59.349972 
	C76.467216,60.292866 79.174820,65.071075 78.658997,72.254410 
M58.342201,65.027496 
	C58.040474,65.358490 57.738747,65.689484 57.437016,66.020477 
	C57.655273,66.199631 57.873535,66.378777 58.091797,66.557930 
	C58.418053,66.053284 58.744312,65.548637 59.468563,64.769066 
	C59.450691,64.396469 59.432816,64.023872 59.414944,63.651276 
	C59.243736,64.068741 59.072529,64.486198 58.342201,65.027496 
M67.150955,62.948559 
	C67.058937,64.541389 66.966911,66.134216 66.903656,67.229149 
	C64.649857,67.996124 62.831928,68.614769 61.014004,69.233414 
	C62.919743,70.154198 64.825478,71.074974 66.957001,72.104843 
	C67.044083,73.357689 67.166626,75.120842 67.289169,76.883995 
	C67.817848,77.012459 68.346519,77.140923 68.875198,77.269394 
	C69.435745,75.239487 69.996300,73.209587 70.366890,71.867584 
	C72.510933,70.996529 74.254395,70.288223 75.997856,69.579918 
	C74.149689,68.804962 72.301514,68.029999 71.201241,67.568642 
	C69.842896,65.530411 68.739433,63.874641 67.150955,62.948559 
M62.621246,60.671501 
	C62.882561,60.594238 63.143879,60.516972 63.405193,60.439713 
	C63.121819,60.149895 62.838444,59.860081 62.555077,59.570263 
	C62.471970,59.829845 62.388863,60.089424 62.621246,60.671501 
z"/>
<path fill="#070707" opacity="1.000000" stroke="none" 
	d="
M52.583817,28.110481 
	C60.552761,31.210732 63.227058,37.490608 59.445229,43.331657 
	C56.731541,47.522957 51.794304,49.110352 47.292351,47.238987 
	C42.883392,45.406273 40.390316,41.078934 41.100830,36.492130 
	C41.904781,31.302162 45.928005,28.242241 52.583817,28.110481 
z"/>
<path fill="#F4F4F4" opacity="1.000000" stroke="none" 
	d="
M67.393463,62.583714 
	C68.739433,63.874641 69.842896,65.530411 71.201241,67.568642 
	C72.301514,68.029999 74.149689,68.804962 75.997856,69.579918 
	C74.254395,70.288223 72.510933,70.996529 70.366890,71.867584 
	C69.996300,73.209587 69.435745,75.239487 68.875198,77.269394 
	C68.346519,77.140923 67.817848,77.012459 67.289169,76.883995 
	C67.166626,75.120842 67.044083,73.357689 66.957001,72.104843 
	C64.825478,71.074974 62.919743,70.154198 61.014004,69.233414 
	C62.831928,68.614769 64.649857,67.996124 66.903656,67.229149 
	C66.966911,66.134216 67.058937,64.541389 67.393463,62.583714 
z"/>
<path fill="#070707" opacity="1.000000" stroke="none" 
	d="
M59.070564,65.043983 
	C58.744312,65.548637 58.418053,66.053284 58.091797,66.557930 
	C57.873535,66.378777 57.655273,66.199631 57.437019,66.020477 
	C57.738747,65.689484 58.040474,65.358490 58.662491,65.002563 
	C58.982780,64.977638 59.070564,65.043983 59.070564,65.043983 
z"/>
<path fill="#070707" opacity="1.000000" stroke="none" 
	d="
M62.463501,60.510254 
	C62.388863,60.089424 62.471970,59.829845 62.555073,59.570267 
	C62.838444,59.860081 63.121819,60.149895 63.405197,60.439709 
	C63.143879,60.516972 62.882561,60.594238 62.463501,60.510254 
z"/>
<path fill="#070707" opacity="1.000000" stroke="none" 
	d="
M58.942051,64.940651 
	C59.072529,64.486198 59.243736,64.068741 59.414944,63.651276 
	C59.432816,64.023872 59.450691,64.396469 59.269562,64.906525 
	C59.070564,65.043983 58.982780,64.977638 58.942051,64.940651 
z"/>
</svg>