<svg version="1.1" id="Layer_1" xmlns="http://www.w3.org/2000/svg" xmlns:xlink="http://www.w3.org/1999/xlink" x="0px" y="0px"
	 width="100%" viewBox="0 0 100 100" enable-background="new 0 0 100 100" xml:space="preserve">
<path fill="#FFFFFF" opacity="1.000000" stroke="none" 
	d="
M54.000000,101.000000 
	C37.000004,101.000000 20.499516,100.937447 4.000533,101.066788 
	C1.497994,101.086411 0.927402,100.500175 0.935280,97.999802 
	C1.034011,66.666786 1.034007,35.333248 0.935287,4.000231 
	C0.927410,1.499949 1.499759,0.927397 4.000176,0.935277 
	C35.333191,1.034015 66.666733,1.034005 97.999748,0.935291 
	C100.499985,0.927414 101.072601,1.499695 101.064720,4.000158 
	C100.965973,35.333176 100.965988,66.666718 101.064697,97.999733 
	C101.072578,100.499931 100.502892,101.091026 97.999420,101.067268 
	C83.500710,100.929573 69.000023,101.000000 54.000000,101.000000 
z"/>
<path fill="#0E0E0E" opacity="1.000000" stroke="none" 
	d="
M27.015167,64.258522 
	C32.162949,55.063457 37.447166,52.610500 47.330208,54.985516 
	C49.643158,55.541344 51.168159,54.502098 52.924171,53.745396 
	C64.684875,48.677475 77.536308,55.154900 80.539742,67.534569 
	C81.351196,70.879250 80.550880,72.106110 77.056366,72.068794 
	C66.255272,71.953468 55.348709,72.907776 44.693123,71.657211 
	C39.294830,71.023659 33.870205,70.433937 28.431118,69.924316 
	C24.304956,69.537704 26.594957,66.652657 27.015167,64.258522 
z"/>
<path fill="#161616" opacity="1.000000" stroke="none" 
	d="
M51.201942,37.613579 
	C54.106869,31.563198 57.589695,29.333193 62.473675,30.060734 
	C66.791496,30.703938 70.465515,34.418953 70.978828,38.660797 
	C71.673485,44.401161 67.321381,49.711555 61.666157,50.024021 
	C55.091221,50.387306 50.860023,45.565292 51.201942,37.613579 
z"/>
<path fill="#1A1A1A" opacity="1.000000" stroke="none" 
	d="
M46.487724,50.661480 
	C41.799965,53.122890 38.064365,52.255188 35.258377,48.305466 
	C32.944599,45.048576 33.638092,40.441868 36.713791,37.936207 
	C39.932392,35.314129 43.405827,35.176456 46.813679,37.599731 
	C51.119102,40.661251 51.081711,45.579887 46.487724,50.661480 
z"/>
<path fill="#FCFCFC" opacity="1.000000" stroke="none" 
	d="
M64.987785,68.978722 
	C58.688206,68.978523 52.882889,68.874329 47.084236,69.025558 
	C44.498444,69.092995 44.435482,68.043129 45.071445,66.070900 
	C47.102905,59.770985 54.105801,54.948994 61.238194,55.023659 
	C68.032326,55.094784 75.050026,60.061768 76.925751,66.036102 
	C77.536499,67.981384 77.555916,69.158661 74.932571,69.017868 
	C71.791649,68.849304 68.634743,68.978493 64.987785,68.978722 
z"/>
<path fill="#F4F4F4" opacity="1.000000" stroke="none" 
	d="
M36.836563,66.992874 
	C34.232925,66.521591 30.719700,68.247894 30.152426,66.095047 
	C29.457073,63.456142 32.084538,61.035469 34.526180,59.475155 
	C35.903164,58.595200 37.430069,57.798229 38.999844,57.408016 
	C41.212364,56.858032 44.051529,56.068958 45.544941,57.928764 
	C46.756428,59.437466 43.986370,60.791550 43.379833,62.431576 
	C42.346825,65.224762 41.272305,68.080673 36.836563,66.992874 
z"/>
<path fill="#FAFAFA" opacity="1.000000" stroke="none" 
	d="
M67.185188,37.034439 
	C68.344200,42.443939 66.810806,45.592503 62.793659,46.757351 
	C59.297295,47.771194 55.220364,45.551281 54.298550,41.855865 
	C53.319397,37.930595 54.911041,35.010002 58.645554,33.552341 
	C62.234356,32.151558 65.050583,33.425117 67.185188,37.034439 
z"/>
<path fill="#F7F7F7" opacity="1.000000" stroke="none" 
	d="
M45.441841,47.436127 
	C42.396011,49.658318 39.941059,49.453510 37.946167,46.589386 
	C36.526752,44.551495 36.685989,42.504517 38.402073,40.758888 
	C40.192558,38.937584 42.405224,38.231289 44.606541,39.905712 
	C47.190334,41.871056 47.884209,44.357513 45.441841,47.436127 
z"/>
</svg>