<svg version="1.1" id="Layer_1" xmlns="http://www.w3.org/2000/svg" xmlns:xlink="http://www.w3.org/1999/xlink" x="0px" y="0px"
	 width="100%" viewBox="0 0 100 100" enable-background="new 0 0 100 100" xml:space="preserve">
<path fill="#FEFEFE" opacity="1.000000" stroke="none" 
	d="
M53.000000,101.000000 
	C35.333336,101.000000 18.166674,101.000000 1.000007,101.000000 
	C1.000005,67.666679 1.000005,34.333351 1.000002,1.000020 
	C34.333317,1.000014 67.666634,1.000014 100.999969,1.000007 
	C100.999977,34.333313 100.999977,67.666626 100.999985,100.999969 
	C85.166664,101.000000 69.333336,101.000000 53.000000,101.000000 
M65.091370,59.212845 
	C64.957634,58.223141 65.198387,56.797886 64.632225,56.311096 
	C58.960587,51.434528 52.470020,49.582993 45.171612,51.885849 
	C37.534832,54.295471 32.907227,59.602837 31.356094,67.393097 
	C31.150297,68.426674 32.566422,70.819244 33.286892,70.842232 
	C41.186527,71.094101 49.097183,71.000206 57.004848,71.000206 
	C57.104374,70.343338 57.203903,69.686478 57.303429,69.029610 
	C54.314159,66.735550 50.366470,68.282204 46.944397,68.036194 
	C42.903454,67.745689 38.825638,67.968018 34.647438,67.968018 
	C37.933628,53.365849 52.052402,49.902584 63.567425,60.145653 
	C61.902218,62.148979 59.731789,63.919853 58.680153,66.205482 
	C56.677624,70.557793 58.716904,75.688896 62.877804,78.314232 
	C67.225189,81.057228 72.645432,80.420227 76.099854,76.760353 
	C79.462662,73.197548 79.969444,67.956108 77.345551,63.876675 
	C74.645035,59.678116 70.175026,58.214035 65.091370,59.212845 
M60.971386,39.189114 
	C60.797077,32.902710 57.725269,28.863070 52.512825,28.065514 
	C47.894016,27.358786 43.563446,29.852404 41.721756,34.279205 
	C39.848377,38.782181 41.451199,43.766033 45.646313,46.482319 
	C51.511944,50.280247 57.811855,47.596394 60.971386,39.189114 
z"/>
<path fill="#070707" opacity="1.000000" stroke="none" 
	d="
M65.520477,60.003574 
	C70.175026,58.214035 74.645035,59.678116 77.345551,63.876675 
	C79.969444,67.956108 79.462662,73.197548 76.099854,76.760353 
	C72.645432,80.420227 67.225189,81.057228 62.877804,78.314232 
	C58.716904,75.688896 56.677624,70.557793 58.680153,66.205482 
	C59.731789,63.919853 61.902218,62.148979 64.079834,60.131794 
	C64.911461,60.145439 65.220871,60.107319 65.520477,60.003574 
M67.063499,73.445419 
	C67.438301,74.691292 67.813103,75.937164 68.187912,77.183037 
	C68.688744,77.051910 69.189575,76.920784 69.690407,76.789650 
	C69.863304,74.901215 70.036194,73.012772 70.128372,72.005974 
	C72.525002,70.987617 74.260437,70.250214 75.995880,69.512802 
	C74.100327,68.760239 72.204765,68.007668 70.149269,67.191605 
	C69.950127,65.715561 69.704338,63.893780 69.458549,62.071991 
	C68.959946,62.026257 68.461349,61.980518 67.962746,61.934784 
	C67.520203,63.827843 67.077667,65.720901 66.546417,67.993423 
	C65.730171,67.993423 64.700539,67.778748 63.820744,68.050026 
	C62.815212,68.360077 61.942959,69.102371 61.012791,69.656845 
	C61.880569,70.106728 62.736496,70.581589 63.619091,71.000237 
	C64.754059,71.538589 65.910423,72.031822 67.063499,73.445419 
z"/>
<path fill="#111111" opacity="1.000000" stroke="none" 
	d="
M65.305923,59.608208 
	C65.220871,60.107319 64.911461,60.145439 64.436035,60.098915 
	C52.052402,49.902584 37.933628,53.365849 34.647438,67.968018 
	C38.825638,67.968018 42.903454,67.745689 46.944397,68.036194 
	C50.366470,68.282204 54.314159,66.735550 57.303429,69.029610 
	C57.203903,69.686478 57.104374,70.343338 57.004848,71.000206 
	C49.097183,71.000206 41.186527,71.094101 33.286892,70.842232 
	C32.566422,70.819244 31.150297,68.426674 31.356094,67.393097 
	C32.907227,59.602837 37.534832,54.295471 45.171612,51.885849 
	C52.470020,49.582993 58.960587,51.434528 64.632225,56.311096 
	C65.198387,56.797886 64.957634,58.223141 65.305923,59.608208 
z"/>
<path fill="#161616" opacity="1.000000" stroke="none" 
	d="
M60.925896,39.590744 
	C57.811855,47.596394 51.511944,50.280247 45.646313,46.482319 
	C41.451199,43.766033 39.848377,38.782181 41.721756,34.279205 
	C43.563446,29.852404 47.894016,27.358786 52.512825,28.065514 
	C57.725269,28.863070 60.797077,32.902710 60.925896,39.590744 
M46.990360,32.338116 
	C43.442024,36.253292 43.047039,39.621754 45.942532,42.698708 
	C48.580635,45.502140 51.740211,45.810646 54.854649,43.686710 
	C57.950203,41.575653 58.977798,38.549389 57.171642,35.080933 
	C55.073666,31.052078 51.834190,29.992367 46.990360,32.338116 
z"/>
<path fill="#F4F4F4" opacity="1.000000" stroke="none" 
	d="
M67.060532,72.994957 
	C65.910423,72.031822 64.754059,71.538589 63.619091,71.000237 
	C62.736496,70.581589 61.880569,70.106728 61.012791,69.656845 
	C61.942959,69.102371 62.815212,68.360077 63.820744,68.050026 
	C64.700539,67.778748 65.730171,67.993423 66.546417,67.993423 
	C67.077667,65.720901 67.520203,63.827843 67.962746,61.934784 
	C68.461349,61.980518 68.959946,62.026257 69.458549,62.071991 
	C69.704338,63.893780 69.950127,65.715561 70.149269,67.191605 
	C72.204765,68.007668 74.100327,68.760239 75.995880,69.512802 
	C74.260437,70.250214 72.525002,70.987617 70.128372,72.005974 
	C70.036194,73.012772 69.863304,74.901215 69.690407,76.789650 
	C69.189575,76.920784 68.688744,77.051910 68.187912,77.183037 
	C67.813103,75.937164 67.438301,74.691292 67.060532,72.994957 
z"/>
<path fill="#FAFAFA" opacity="1.000000" stroke="none" 
	d="
M47.337517,32.161907 
	C51.834190,29.992367 55.073666,31.052078 57.171642,35.080933 
	C58.977798,38.549389 57.950203,41.575653 54.854649,43.686710 
	C51.740211,45.810646 48.580635,45.502140 45.942532,42.698708 
	C43.047039,39.621754 43.442024,36.253292 47.337517,32.161907 
z"/>
</svg>