<svg width="100" height="100" viewBox="0 0 100 100" fill="none" xmlns="http://www.w3.org/2000/svg">
<rect width="100" height="100" fill="white"/>
<path d="M55 69C56.1046 69 57.0129 68.1011 56.8752 67.0051C56.4345 63.4972 54.8402 60.2128 52.3137 57.6863C49.3131 54.6857 45.2435 53 41 53C36.7565 53 32.6869 54.6857 29.6863 57.6863C27.1598 60.2128 25.5655 63.4972 25.1248 67.0051C24.9871 68.1011 25.8954 69 27 69L41 69H55Z" fill="black"/>
<circle cx="41" cy="43" r="8" fill="black"/>
<mask id="path-3-inside-1_1_14" fill="white">
<path d="M78 71C79.1046 71 80.0104 70.1023 79.9001 69.0033C79.4416 64.4323 77.4192 60.135 74.1421 56.8579C70.3914 53.1071 65.3043 51 60 51C54.6957 51 49.6086 53.1071 45.8579 56.8579C42.5808 60.135 40.5584 64.4323 40.0999 69.0033C39.9896 70.1023 40.8954 71 42 71L60 71H78Z"/>
</mask>
<path d="M78 71C79.1046 71 80.0104 70.1023 79.9001 69.0033C79.4416 64.4323 77.4192 60.135 74.1421 56.8579C70.3914 53.1071 65.3043 51 60 51C54.6957 51 49.6086 53.1071 45.8579 56.8579C42.5808 60.135 40.5584 64.4323 40.0999 69.0033C39.9896 70.1023 40.8954 71 42 71L60 71H78Z" fill="black" stroke="white" stroke-width="2" mask="url(#path-3-inside-1_1_14)"/>
<circle cx="60" cy="39" r="10" fill="black"/>
</svg>
