<svg version="1.1" id="Layer_1" xmlns="http://www.w3.org/2000/svg" xmlns:xlink="http://www.w3.org/1999/xlink" x="0px" y="0px"
	 width="100%" viewBox="0 0 100 100" enable-background="new 0 0 100 100" xml:space="preserve">
<path fill="#FEFEFE" opacity="1.000000" stroke="none" 
	d="
M54.000000,101.000000 
	C36.000004,101.000000 18.500006,101.000000 1.000007,101.000000 
	C1.000005,67.666679 1.000005,34.333351 1.000002,1.000021 
	C34.333317,1.000014 67.666634,1.000014 100.999969,1.000007 
	C100.999977,34.333313 100.999977,67.666626 100.999985,100.999969 
	C85.500000,101.000000 70.000000,101.000000 54.000000,101.000000 
M41.159630,70.029701 
	C54.017448,70.029701 66.875267,70.029701 79.687576,70.029701 
	C78.301338,57.028091 65.647018,49.503639 53.240040,54.554104 
	C51.398361,55.303787 48.863415,55.299564 46.931007,54.714069 
	C38.236095,52.079609 28.974890,57.067146 26.511583,65.813957 
	C25.616760,68.991333 26.526720,70.140213 29.733650,70.030533 
	C33.222939,69.911194 36.719513,70.004852 41.159630,70.029701 
M51.913261,44.234699 
	C52.594868,45.162304 53.169395,46.198006 53.977226,46.998180 
	C56.958275,49.951019 60.884819,51.374939 64.355736,49.205212 
	C67.126587,47.473118 69.624245,44.253799 70.719933,41.155880 
	C72.113983,37.214363 69.696228,33.711475 66.212105,31.534168 
	C62.712269,29.347034 58.990410,29.222012 55.499542,31.741198 
	C51.392502,34.705044 50.059868,38.647472 51.913261,44.234699 
M34.170975,42.072132 
	C33.931660,49.061974 38.589954,53.538517 44.284363,51.672100 
	C47.979496,50.460964 50.009865,47.761219 49.979332,43.854332 
	C49.948349,39.889206 47.687641,37.218819 44.001839,36.277317 
	C39.527618,35.134418 36.320259,37.169518 34.170975,42.072132 
z"/>
<path fill="#020202" opacity="1.000000" stroke="none" 
	d="
M40.686272,70.017670 
	C36.719513,70.004852 33.222939,69.911194 29.733650,70.030533 
	C26.526720,70.140213 25.616760,68.991333 26.511583,65.813957 
	C28.974890,57.067146 38.236095,52.079609 46.931007,54.714069 
	C48.863415,55.299564 51.398361,55.303787 53.240040,54.554104 
	C65.647018,49.503639 78.301338,57.028091 79.687576,70.029701 
	C66.875267,70.029701 54.017448,70.029701 40.686272,70.017670 
M45.289291,60.057583 
	C44.155876,61.328644 43.022461,62.599705 41.889050,63.870766 
	C42.449902,64.241127 43.010750,64.611481 43.571602,64.981842 
	C44.385162,63.323895 45.198719,61.665947 46.482861,59.665257 
	C46.577423,59.069923 46.671982,58.474590 46.766544,57.879253 
	C46.558189,57.855404 46.349838,57.831551 46.141483,57.807701 
	C46.089931,58.534103 46.038376,59.260506 45.289291,60.057583 
M41.365227,66.714050 
	C41.598545,67.228897 41.816532,67.752510 42.095642,68.241203 
	C42.116909,68.278450 42.571114,68.068428 42.824078,67.973335 
	C42.483723,67.430359 42.143368,66.887375 41.365227,66.714050 
z"/>
<path fill="#070707" opacity="1.000000" stroke="none" 
	d="
M51.758949,43.873238 
	C50.059868,38.647472 51.392502,34.705044 55.499542,31.741198 
	C58.990410,29.222012 62.712269,29.347034 66.212105,31.534168 
	C69.696228,33.711475 72.113983,37.214363 70.719933,41.155880 
	C69.624245,44.253799 67.126587,47.473118 64.355736,49.205212 
	C60.884819,51.374939 56.958275,49.951019 53.977226,46.998180 
	C53.169395,46.198006 52.594868,45.162304 51.758949,43.873238 
z"/>
<path fill="#0B0B0B" opacity="1.000000" stroke="none" 
	d="
M34.297970,41.695709 
	C36.320259,37.169518 39.527618,35.134418 44.001839,36.277317 
	C47.687641,37.218819 49.948349,39.889206 49.979332,43.854332 
	C50.009865,47.761219 47.979496,50.460964 44.284363,51.672100 
	C38.589954,53.538517 33.931660,49.061974 34.297970,41.695709 
z"/>
<path fill="#080808" opacity="1.000000" stroke="none" 
	d="
M46.012283,60.008003 
	C45.198719,61.665947 44.385162,63.323895 43.571602,64.981842 
	C43.010750,64.611481 42.449902,64.241127 41.889050,63.870766 
	C43.022461,62.599705 44.155876,61.328644 45.644192,60.028358 
	C45.999092,59.999134 46.012283,60.008003 46.012283,60.008003 
z"/>
<path fill="#080808" opacity="1.000000" stroke="none" 
	d="
M41.584122,66.529221 
	C42.143368,66.887375 42.483723,67.430359 42.824078,67.973335 
	C42.571114,68.068428 42.116909,68.278450 42.095642,68.241203 
	C41.816532,67.752510 41.598545,67.228897 41.584122,66.529221 
z"/>
<path fill="#080808" opacity="1.000000" stroke="none" 
	d="
M45.992958,59.993019 
	C46.038376,59.260506 46.089931,58.534103 46.141483,57.807701 
	C46.349838,57.831551 46.558189,57.855404 46.766544,57.879253 
	C46.671982,58.474590 46.577423,59.069923 46.247574,59.836632 
	C46.012283,60.008003 45.999092,59.999134 45.992958,59.993019 
z"/>
</svg>