<svg width="25" height="18" viewBox="0 0 25 18" fill="none" xmlns="http://www.w3.org/2000/svg">
<path fill-rule="evenodd" clip-rule="evenodd" d="M13.4247 4C13.4247 5.65685 12.0815 7 10.4247 7C8.76783 7 7.42468 5.65685 7.42468 4C7.42468 2.34315 8.76783 1 10.4247 1C12.0815 1 13.4247 2.34315 13.4247 4ZM14.4247 4C14.4247 6.20914 12.6338 8 10.4247 8C8.21555 8 6.42468 6.20914 6.42468 4C6.42468 1.79086 8.21555 0 10.4247 0C12.6338 0 14.4247 1.79086 14.4247 4ZM10.4247 8.5C4.73183 8.5 1.4194 11.8677 0.329605 14.876C0.0743848 15.5805 0.255613 16.2583 0.681346 16.7427C1.09764 17.2163 1.73821 17.5 2.42468 17.5H18.1057C18.963 17.5 19.7041 17.0733 20.1235 16.4438C20.5479 15.8069 20.6394 14.9624 20.1938 14.1882C18.547 11.327 15.5817 8.5 10.4247 8.5ZM1.26981 15.2166C2.22559 12.5783 5.17964 9.5 10.4247 9.5C15.1298 9.5 17.8062 12.0446 19.3271 14.687C19.5688 15.1069 19.5217 15.5436 19.2914 15.8893C19.056 16.2425 18.6261 16.5 18.1057 16.5H2.42468C2.00659 16.5 1.64656 16.3261 1.43245 16.0825C1.22778 15.8496 1.14881 15.5506 1.26981 15.2166ZM22.0828 9H24.2123V10H22.0784L22.0695 12.0031L21.3552 12L21.3641 10H19.2123V9H21.3685L21.3774 7L22.0917 7.00317L22.0828 9Z" fill="black"/>
</svg>
