<svg width="23" height="17" viewBox="0 0 23 17" fill="none" xmlns="http://www.w3.org/2000/svg">
<path fill-rule="evenodd" clip-rule="evenodd" d="M9.71218 8C11.9213 8 13.7122 6.20914 13.7122 4C13.7122 1.79086 11.9213 0 9.71218 0C7.50304 0 5.71218 1.79086 5.71218 4C5.71218 6.20914 7.50304 8 9.71218 8ZM1.71218 17H17.3932C18.7709 17 19.7352 15.6317 19.048 14.4376C17.4641 11.6858 14.6433 9 9.71218 9C4.24323 9 1.10999 12.223 0.087204 15.0463C-0.28902 16.0848 0.607611 17 1.71218 17ZM20.8705 9H23V10H20.866L20.8571 12.0031L20.1428 12L20.1517 10H18V9H20.1562L20.1651 7L20.8793 7.00317L20.8705 9Z" fill="black"/>
</svg>
