<svg width="100" height="100" viewBox="0 0 100 100" fill="none" xmlns="http://www.w3.org/2000/svg">
<rect width="100" height="100" fill="white"/>
<mask id="path-1-inside-1_1_46" fill="white">
<path d="M68 70C69.1046 70 70.0104 69.1023 69.9001 68.0033C69.4416 63.4323 67.4192 59.135 64.1421 55.8579C60.3914 52.1071 55.3043 50 50 50C44.6957 50 39.6086 52.1071 35.8579 55.8579C32.5808 59.135 30.5584 63.4323 30.0999 68.0033C29.9896 69.1023 30.8954 70 32 70L50 70H68Z"/>
</mask>
<path d="M68 70C69.1046 70 70.0104 69.1023 69.9001 68.0033C69.4416 63.4323 67.4192 59.135 64.1421 55.8579C60.3914 52.1071 55.3043 50 50 50C44.6957 50 39.6086 52.1071 35.8579 55.8579C32.5808 59.135 30.5584 63.4323 30.0999 68.0033C29.9896 69.1023 30.8954 70 32 70L50 70H68Z" stroke="black" stroke-width="6" mask="url(#path-1-inside-1_1_46)"/>
<circle cx="50" cy="37" r="8.5" stroke="black" stroke-width="3"/>
<circle cx="67.5" cy="68.5" r="11" fill="black" stroke="white"/>
<rect x="60" y="67" width="15" height="3" fill="white"/>
<rect x="68.9249" y="61.0776" width="14.912" height="2.82124" transform="rotate(90.0516 68.9249 61.0776)" fill="white"/>
</svg>
