<svg version="1.1" id="Layer_1" xmlns="http://www.w3.org/2000/svg" xmlns:xlink="http://www.w3.org/1999/xlink" x="0px" y="0px"
	 width="100%" viewBox="0 0 100 100" enable-background="new 0 0 100 100" xml:space="preserve">
<path fill="#FFFFFF" opacity="1.000000" stroke="none" 
	d="
M54.000000,101.000000 
	C36.000004,101.000000 18.500006,101.000000 1.000007,101.000000 
	C1.000005,67.666679 1.000005,34.333351 1.000002,1.000021 
	C34.333317,1.000014 67.666634,1.000014 100.999969,1.000007 
	C100.999977,34.333313 100.999977,67.666626 100.999985,100.999969 
	C85.500000,101.000000 70.000000,101.000000 54.000000,101.000000 
M59.469437,71.030334 
	C61.962124,71.030304 64.461311,70.916389 66.945908,71.058144 
	C70.296593,71.249290 71.426712,70.122238 70.584747,66.643600 
	C68.431984,57.749241 60.805073,51.272228 51.731651,50.980568 
	C42.360516,50.679337 34.309429,56.734264 31.662575,65.705963 
	C30.526281,69.557518 31.095633,71.240662 35.549389,71.097908 
	C43.185783,70.853142 50.835701,71.030319 59.469437,71.030334 
M41.878815,42.250240 
	C44.346542,46.636433 48.070999,48.825233 53.057995,47.826374 
	C57.345825,46.967548 60.043388,44.032120 60.874275,39.725998 
	C61.724716,35.318523 59.932400,31.809431 56.234253,29.499660 
	C52.721172,27.305473 48.983540,27.185303 45.476257,29.706596 
	C41.340103,32.679970 40.038410,36.650574 41.878815,42.250240 
M83.070915,55.504307 
	C82.195053,51.285469 85.159615,52.113914 87.566025,51.927731 
	C88.406021,51.862747 89.182877,50.981426 89.988564,50.472912 
	C89.164787,49.982395 88.393402,49.249203 87.505127,49.057442 
	C86.124588,48.759415 84.664536,48.829750 83.069939,48.733822 
	C83.069939,47.064732 83.257301,45.717777 83.005791,44.458477 
	C82.830452,43.580555 82.053444,42.822796 81.545197,42.011356 
	C81.030678,42.812473 80.223083,43.561230 80.068466,44.426651 
	C79.819572,45.819725 80.001640,47.289791 80.001640,48.175098 
	C77.281403,49.011257 75.151100,49.666080 73.020798,50.320904 
	C75.159561,51.163219 77.298317,52.005539 80.002106,53.070385 
	C80.002106,53.823124 79.807495,55.310989 80.075645,56.710163 
	C80.234573,57.539391 81.123802,58.228653 81.684654,58.980846 
	C82.146622,58.125557 82.608589,57.270267 83.070915,55.504307 
z"/>
<path fill="#101010" opacity="1.000000" stroke="none" 
	d="
M58.974689,71.030334 
	C50.835701,71.030319 43.185783,70.853142 35.549389,71.097908 
	C31.095633,71.240662 30.526281,69.557518 31.662575,65.705963 
	C34.309429,56.734264 42.360516,50.679337 51.731651,50.980568 
	C60.805073,51.272228 68.431984,57.749241 70.584747,66.643600 
	C71.426712,70.122238 70.296593,71.249290 66.945908,71.058144 
	C64.461311,70.916389 61.962124,71.030304 58.974689,71.030334 
M59.697666,56.508957 
	C48.355793,50.870945 36.763481,56.021290 34.870228,67.613663 
	C45.672943,67.613663 56.458820,67.613663 67.244698,67.613663 
	C67.612511,67.187256 67.980324,66.760849 68.348137,66.334442 
	C65.677299,63.195938 63.006466,60.057434 59.697666,56.508957 
z"/>
<path fill="#161616" opacity="1.000000" stroke="none" 
	d="
M41.720417,41.888844 
	C40.038410,36.650574 41.340103,32.679970 45.476257,29.706596 
	C48.983540,27.185303 52.721172,27.305473 56.234253,29.499660 
	C59.932400,31.809431 61.724716,35.318523 60.874275,39.725998 
	C60.043388,44.032120 57.345825,46.967548 53.057995,47.826374 
	C48.070999,48.825233 44.346542,46.636433 41.720417,41.888844 
M50.608452,44.959999 
	C56.524734,43.851498 59.306732,40.078758 57.452312,35.589497 
	C56.100346,32.316589 53.396400,30.124893 50.126411,31.292131 
	C47.754463,32.138809 45.007977,34.656898 44.349064,36.975494 
	C43.222778,40.938679 45.723625,43.806664 50.608452,44.959999 
z"/>
<path fill="#000000" opacity="1.000000" stroke="none" 
	d="
M83.070740,55.959641 
	C82.608589,57.270267 82.146622,58.125557 81.684654,58.980850 
	C81.123802,58.228653 80.234573,57.539391 80.075645,56.710163 
	C79.807495,55.310989 80.002106,53.823124 80.002106,53.070385 
	C77.298317,52.005539 75.159561,51.163219 73.020798,50.320904 
	C75.151100,49.666080 77.281403,49.011257 80.001640,48.175098 
	C80.001640,47.289791 79.819572,45.819725 80.068466,44.426651 
	C80.223083,43.561230 81.030678,42.812473 81.545197,42.011360 
	C82.053444,42.822796 82.830452,43.580555 83.005791,44.458477 
	C83.257301,45.717777 83.069939,47.064732 83.069939,48.733822 
	C84.664536,48.829750 86.124588,48.759415 87.505127,49.057442 
	C88.393402,49.249203 89.164787,49.982395 89.988564,50.472912 
	C89.182877,50.981426 88.406021,51.862747 87.566025,51.927731 
	C85.159615,52.113914 82.195053,51.285469 83.070740,55.959641 
z"/>
<path fill="#FCFCFC" opacity="1.000000" stroke="none" 
	d="
M60.016647,56.713943 
	C63.006466,60.057434 65.677299,63.195938 68.348137,66.334442 
	C67.980324,66.760849 67.612511,67.187256 67.244698,67.613663 
	C56.458820,67.613663 45.672943,67.613663 34.870228,67.613663 
	C36.763481,56.021290 48.355793,50.870945 60.016647,56.713943 
z"/>
<path fill="#FAFAFA" opacity="1.000000" stroke="none" 
	d="
M50.221790,44.922409 
	C45.723625,43.806664 43.222778,40.938679 44.349064,36.975494 
	C45.007977,34.656898 47.754463,32.138809 50.126411,31.292131 
	C53.396400,30.124893 56.100346,32.316589 57.452312,35.589497 
	C59.306732,40.078758 56.524734,43.851498 50.221790,44.922409 
z"/>
</svg>