<svg width="21" height="18" viewBox="0 0 21 18" fill="none" xmlns="http://www.w3.org/2000/svg">
<path fill-rule="evenodd" clip-rule="evenodd" d="M13.2123 4C13.2123 5.65685 11.8692 7 10.2123 7C8.55549 7 7.21234 5.65685 7.21234 4C7.21234 2.34315 8.55549 1 10.2123 1C11.8692 1 13.2123 2.34315 13.2123 4ZM14.2123 4C14.2123 6.20914 12.4215 8 10.2123 8C8.0032 8 6.21234 6.20914 6.21234 4C6.21234 1.79086 8.0032 0 10.2123 0C12.4215 0 14.2123 1.79086 14.2123 4ZM10.2123 8.5C4.51948 8.5 1.20705 11.8677 0.117264 14.876C-0.137956 15.5805 0.0432713 16.2583 0.469005 16.7427C0.885297 17.2163 1.52587 17.5 2.21234 17.5H17.8934C18.7507 17.5 19.4918 17.0733 19.9112 16.4438C20.3356 15.8069 20.4271 14.9624 19.9815 14.1882C18.3347 11.327 15.3694 8.5 10.2123 8.5ZM1.05747 15.2166C2.01325 12.5783 4.9673 9.5 10.2123 9.5C14.9175 9.5 17.5939 12.0446 19.1148 14.687C19.3564 15.1069 19.3094 15.5436 19.079 15.8893C18.8437 16.2425 18.4138 16.5 17.8934 16.5H2.21234C1.79424 16.5 1.43422 16.3261 1.22011 16.0825C1.01544 15.8496 0.936466 15.5506 1.05747 15.2166Z" fill="black"/>
</svg>
