<svg version="1.1" id="Layer_1" xmlns="http://www.w3.org/2000/svg" xmlns:xlink="http://www.w3.org/1999/xlink" x="0px" y="0px"
	 width="100%" viewBox="0 0 100 100" enable-background="new 0 0 100 100" xml:space="preserve">
<path fill="#FFFFFF" opacity="1.000000" stroke="none" 
	d="
M52.000000,101.000000 
	C34.666668,101.000000 17.833340,101.000000 1.000007,101.000000 
	C1.000005,67.666679 1.000005,34.333351 1.000002,1.000020 
	C34.333317,1.000013 67.666634,1.000013 100.999969,1.000007 
	C100.999977,34.333313 100.999977,67.666626 100.999985,100.999969 
	C84.833336,101.000000 68.666664,101.000000 52.000000,101.000000 
M67.273537,59.341866 
	C62.126701,52.708271 55.370808,49.748550 47.128254,51.429039 
	C39.397377,53.005207 34.250404,57.767197 31.779697,65.446724 
	C30.477640,69.493835 31.071648,71.247047 35.826332,71.086349 
	C44.297592,70.800018 52.785492,71.005836 61.266430,71.005836 
	C72.822136,71.005829 73.134583,70.469566 67.273537,59.341866 
M60.327152,41.487202 
	C62.062569,36.595001 60.614796,32.625221 56.508286,29.745426 
	C53.100655,27.355736 49.349232,27.198009 45.785606,29.515955 
	C42.126072,31.896282 40.377438,35.375744 41.144234,39.725616 
	C41.908726,44.062412 44.732998,46.866627 48.958706,47.766148 
	C53.951122,48.828873 57.635906,46.652458 60.327152,41.487202 
z"/>
<path fill="#030303" opacity="1.000000" stroke="none" 
	d="
M67.499008,59.631763 
	C73.134583,70.469566 72.822136,71.005829 61.266430,71.005836 
	C52.785492,71.005836 44.297592,70.800018 35.826332,71.086349 
	C31.071648,71.247047 30.477640,69.493835 31.779697,65.446724 
	C34.250404,57.767197 39.397377,53.005207 47.128254,51.429039 
	C55.370808,49.748550 62.126701,52.708271 67.499008,59.631763 
z"/>
<path fill="#070707" opacity="1.000000" stroke="none" 
	d="
M60.177731,41.849312 
	C57.635906,46.652458 53.951122,48.828873 48.958706,47.766148 
	C44.732998,46.866627 41.908726,44.062412 41.144234,39.725616 
	C40.377438,35.375744 42.126072,31.896282 45.785606,29.515955 
	C49.349232,27.198009 53.100655,27.355736 56.508286,29.745426 
	C60.614796,32.625221 62.062569,36.595001 60.177731,41.849312 
z"/>
</svg>