<svg version="1.1" id="Layer_1" xmlns="http://www.w3.org/2000/svg" xmlns:xlink="http://www.w3.org/1999/xlink" x="0px" y="0px"
	 width="100%" viewBox="0 0 100 100" enable-background="new 0 0 100 100" xml:space="preserve">
<path fill="#FFFFFF" opacity="1.000000" stroke="none" 
	d="
M52.000000,101.000000 
	C34.666668,101.000000 17.833340,101.000000 1.000007,101.000000 
	C1.000005,67.666679 1.000005,34.333351 1.000002,1.000020 
	C34.333317,1.000013 67.666634,1.000013 100.999969,1.000007 
	C100.999977,34.333313 100.999977,67.666626 100.999985,100.999969 
	C84.833336,101.000000 68.666664,101.000000 52.000000,101.000000 
M51.499405,71.005730 
	C56.640831,71.005699 61.785255,70.899124 66.922607,71.043770 
	C70.249580,71.137444 71.398422,70.137703 70.544220,66.639908 
	C68.373085,57.749535 60.801132,51.307552 51.727676,51.005455 
	C42.402962,50.694992 34.332802,56.770794 31.696745,65.707359 
	C30.559330,69.563339 31.136841,71.299286 35.576496,71.065620 
	C40.538315,70.804482 45.524467,71.005714 51.499405,71.005730 
M57.192116,45.833225 
	C61.853302,40.677387 62.274899,35.522186 58.380329,31.303957 
	C54.756474,27.378939 48.996517,26.861877 44.925426,30.096128 
	C40.917683,33.280056 39.787563,38.876987 42.315578,43.021420 
	C45.356689,48.007023 50.649002,49.206642 57.192116,45.833225 
M82.425674,58.939571 
	C82.767426,56.738178 83.109184,54.536781 83.381294,52.783955 
	C85.748184,52.015560 87.864906,51.328381 89.981628,50.641201 
	C88.055870,50.074379 86.127968,49.514633 84.206619,48.933235 
	C83.913010,48.844383 83.649673,48.655449 83.070450,48.357536 
	C83.070450,47.214005 83.239235,45.884232 83.014091,44.624886 
	C82.850296,43.708691 82.166161,42.885525 81.714012,42.020882 
	C81.143013,42.928402 80.309586,43.770977 80.065010,44.759277 
	C79.731667,46.106304 79.847420,47.564461 79.769196,49.001007 
	C78.127281,49.001007 76.912224,48.787365 75.821281,49.063709 
	C74.817787,49.317902 73.947838,50.099323 73.019066,50.648487 
	C73.881088,51.098610 74.700005,51.767300 75.615204,51.947834 
	C77.000977,52.221191 78.453751,52.154823 79.126907,52.191681 
	C80.061653,54.853729 80.787903,56.922009 82.425674,58.939571 
z"/>
<path fill="#030303" opacity="1.000000" stroke="none" 
	d="
M50.999718,71.005730 
	C45.524467,71.005714 40.538315,70.804482 35.576496,71.065620 
	C31.136841,71.299286 30.559330,69.563339 31.696745,65.707359 
	C34.332802,56.770794 42.402962,50.694992 51.727676,51.005455 
	C60.801132,51.307552 68.373085,57.749535 70.544220,66.639908 
	C71.398422,70.137703 70.249580,71.137444 66.922607,71.043770 
	C61.785255,70.899124 56.640831,71.005699 50.999718,71.005730 
z"/>
<path fill="#070707" opacity="1.000000" stroke="none" 
	d="
M56.864182,46.039032 
	C50.649002,49.206642 45.356689,48.007023 42.315578,43.021420 
	C39.787563,38.876987 40.917683,33.280056 44.925426,30.096128 
	C48.996517,26.861877 54.756474,27.378939 58.380329,31.303957 
	C62.274899,35.522186 61.853302,40.677387 56.864182,46.039032 
z"/>
<path fill="#000000" opacity="1.000000" stroke="none" 
	d="
M81.969910,58.964928 
	C80.787903,56.922009 80.061653,54.853729 79.126907,52.191681 
	C78.453751,52.154823 77.000977,52.221191 75.615204,51.947834 
	C74.700005,51.767300 73.881088,51.098610 73.019066,50.648483 
	C73.947838,50.099323 74.817787,49.317902 75.821281,49.063709 
	C76.912224,48.787365 78.127281,49.001007 79.769196,49.001007 
	C79.847420,47.564461 79.731667,46.106304 80.065010,44.759277 
	C80.309586,43.770977 81.143013,42.928402 81.714012,42.020882 
	C82.166161,42.885525 82.850296,43.708691 83.014091,44.624886 
	C83.239235,45.884232 83.070450,47.214005 83.070450,48.357536 
	C83.649673,48.655449 83.913010,48.844383 84.206619,48.933235 
	C86.127968,49.514633 88.055870,50.074379 89.981628,50.641197 
	C87.864906,51.328381 85.748184,52.015560 83.381294,52.783955 
	C83.109184,54.536781 82.767426,56.738178 81.969910,58.964928 
z"/>
</svg>